<svg xmlns="http://www.w3.org/2000/svg" version="1.1" xmlns:xlink="http://www.w3.org/1999/xlink" width="1500" height="1500" viewBox="0 0 1500 1500"><rect width="1500" height="1500" x="0" y="0" id="background" stroke="transparent" fill="#ffffff"></rect><svg xml:space="preserve" width="1000" height="1000" data-version="2" data-id="lg_Y9OUzKr1ErS77r2bzJ" viewBox="0 0 419 234" x="250" y="250"><rect width="100%" height="100%" fill="transparent"></rect><path d="m109.983 182.185-9.12-14.34h-4.14v14.34h-3.03v-33.61h10.67q1.71 0 3.21.65 1.5.64 2.62 1.76 1.13 1.13 1.77 2.64.65 1.51.65 3.22v2.72q0 1.71-.65 3.23-.64 1.51-1.77 2.63-1.12 1.13-2.62 1.77-1.5.65-3.21.65l9.11 14.34Zm-.4-25.34q0-1.12-.42-2.09-.42-.98-1.15-1.71-.72-.74-1.7-1.16-.97-.43-2.09-.43h-7.5v13.5h7.5q1.12 0 2.09-.42.98-.42 1.7-1.16.73-.74 1.15-1.71.42-.97.42-2.1Z"></path><rect width="19.78" height="33.61" x="-9.89" y="-16.8" fill="none" rx="0" ry="0" transform="translate(104.08 165.88)"></rect><path d="M122.463 182.185v-33.61h3.02v33.61Z"></path><rect width="3.02" height="33.61" x="-1.51" y="-16.8" fill="none" rx="0" ry="0" transform="translate(124.47 165.88)"></rect><path d="M154.803 174.405q0 1.71-.64 3.21t-1.77 2.62q-1.12 1.13-2.62 1.77-1.5.65-3.22.65h-2.39q-1.71 0-3.22-.65-1.51-.64-2.64-1.77-1.12-1.12-1.77-2.62-.64-1.5-.64-3.21v-18.05q0-1.71.64-3.21.65-1.5 1.77-2.62 1.13-1.13 2.64-1.77 1.51-.65 3.22-.65h2.39q1.72 0 3.22.65 1.5.64 2.62 1.77 1.13 1.12 1.77 2.62.64 1.5.64 3.21v1.36l-3.02.47v-1.83q0-1.12-.42-2.1-.42-.97-1.15-1.69-.73-.73-1.7-1.15-.97-.43-2.1-.43h-2.11q-1.12 0-2.09.43-.98.42-1.71 1.15-.74.72-1.16 1.69-.43.98-.43 2.1v18.05q0 1.12.43 2.1.42.97 1.16 1.71.73.74 1.71 1.16.97.42 2.09.42h2.11q1.13 0 2.1-.42.97-.42 1.7-1.16t1.15-1.71q.42-.98.42-2.1v-1.83l3.02.49z"></path><rect width="18.91" height="34.55" x="-9.46" y="-17.27" fill="none" rx="0" ry="0" transform="translate(145.85 165.88)"></rect><path d="M180.643 182.185v-15.35h-12.87v15.35h-3.02v-33.61h3.02v15.38h12.87v-15.38h3.02v33.61Z"></path><rect width="18.91" height="33.61" x="-9.46" y="-16.8" fill="none" rx="0" ry="0" transform="translate(174.7 165.88)"></rect><path d="M215.263 182.185v-23.04l-.21 1.43-7.81 21.61h-1.59l-7.87-21.61-.19-1.43v23.04h-3.03v-33.61h1.57l10.2 27.56.09 1.25.1-1.25 10.17-27.56h1.59v33.61Z"></path><rect width="23.72" height="33.61" x="-11.86" y="-16.8" fill="none" rx="0" ry="0" transform="translate(206.92 165.88)"></rect><path d="M247.593 174.405q0 1.71-.65 3.21-.64 1.5-1.77 2.62-1.12 1.13-2.62 1.77-1.5.65-3.21.65h-2.4q-1.71 0-3.22-.65-1.51-.64-2.63-1.77-1.13-1.12-1.77-2.62-.65-1.5-.65-3.21v-18.05q0-1.71.65-3.21.64-1.5 1.77-2.62 1.12-1.13 2.63-1.77 1.51-.65 3.22-.65h2.4q1.71 0 3.21.65 1.5.64 2.62 1.77 1.13 1.12 1.77 2.62.65 1.5.65 3.21zm-3.03-18.05q0-1.12-.42-2.1-.42-.97-1.15-1.69-.73-.73-1.7-1.15-.97-.43-2.1-.43h-2.1q-1.13 0-2.1.43-.98.42-1.71 1.15-.74.72-1.16 1.69-.43.98-.43 2.1v18.05q0 1.12.43 2.1.42.97 1.16 1.71.73.74 1.71 1.16.97.42 2.1.42h2.1q1.13 0 2.1-.42.97-.42 1.7-1.16t1.15-1.71q.42-.98.42-2.1Z"></path><rect width="18.92" height="34.55" x="-9.46" y="-17.27" fill="none" rx="0" ry="0" transform="translate(238.63 165.88)"></rect><path d="m275.343 182.185-14.02-24.47-.28-1.45v25.92h-3.02v-33.61h1.57l14.02 24.49.3 1.43v-25.92h3.02v33.61Z"></path><rect width="18.91" height="33.61" x="-9.46" y="-16.8" fill="none" rx="0" ry="0" transform="translate(267.98 165.88)"></rect><path d="M306.753 173.935q0 1.71-.64 3.21-.65 1.5-1.77 2.63-1.13 1.12-2.64 1.77-1.51.64-3.22.64h-10.64v-33.61h10.64q1.71 0 3.22.65 1.51.64 2.64 1.76 1.12 1.13 1.77 2.64.64 1.51.64 3.22zm-3.02-17.09q0-1.12-.42-2.09-.43-.98-1.16-1.71-.74-.74-1.71-1.16-.98-.43-2.1-.43h-7.48v27.85h7.48q1.12 0 2.1-.42.97-.43 1.71-1.15.73-.73 1.16-1.7.42-.97.42-2.1Z"></path><rect width="18.91" height="33.61" x="-9.46" y="-16.8" fill="none" rx="0" ry="0" transform="translate(297.8 165.88)"></rect><path d="M347.313 182.185v-15.35h-12.87v15.35h-3.02v-33.61h3.02v15.38h12.87v-15.38h3.02v33.61Z"></path><rect width="18.91" height="33.61" x="-9.46" y="-16.8" fill="none" rx="0" ry="0" transform="translate(341.38 165.88)"></rect><path d="M361.243 182.185v-33.61h3.02v33.61Z"></path><rect width="3.02" height="33.61" x="-1.51" y="-16.8" fill="none" rx="0" ry="0" transform="translate(363.25 165.88)"></rect><path d="M374.673 182.185v-33.61h3.02v30.73h12.87v2.88Z"></path><rect width="15.89" height="33.61" x="-7.95" y="-16.8" fill="none" rx="0" ry="0" transform="translate(383.12 165.88)"></rect><path d="M398.093 182.185v-33.61h3.02v30.73h12.87v2.88Z"></path><rect width="15.89" height="33.61" x="-7.95" y="-16.8" fill="none" rx="0" ry="0" transform="translate(406.54 165.88)"></rect><path d="M232.163 220.505q0 1.71-.65 3.21-.64 1.5-1.76 2.63-1.13 1.12-2.63 1.77-1.5.64-3.21.64h-.96q-1.71 0-3.22-.64-1.52-.65-2.64-1.77-1.13-1.13-1.77-2.63-.65-1.5-.65-3.21v-1.33l3.03-.5v1.83q0 1.13.42 2.1.42.97 1.16 1.71t1.71 1.16q.97.42 2.1.42h.68q1.1 0 2.08-.42.99-.42 1.72-1.16.72-.74 1.14-1.71.43-.97.43-2.1v-25.83h3.02z"></path><rect width="17.49" height="34.08" x="-8.74" y="-17.04" fill="none" rx="0" ry="0" transform="translate(223.92 212.22)"></rect><path d="M242.103 228.285v-33.61h3.03v33.61Z"></path><rect width="3.03" height="33.61" x="-1.51" y="-16.8" fill="none" rx="0" ry="0" transform="translate(244.12 211.98)"></rect><path d="M274.453 220.505q0 1.71-.64 3.21-.65 1.5-1.77 2.63-1.13 1.12-2.63 1.77-1.5.64-3.21.64h-2.39q-1.71 0-3.22-.64-1.51-.65-2.64-1.77-1.12-1.13-1.77-2.63-.64-1.5-.64-3.21v-25.83h3.02v25.83q0 1.13.42 2.1.42.97 1.16 1.71t1.71 1.16q.98.42 2.1.42h2.11q1.12 0 2.1-.42.97-.42 1.7-1.16.72-.74 1.15-1.71.42-.97.42-2.1v-25.83h3.02z"></path><rect width="18.91" height="34.08" x="-9.46" y="-17.04" fill="none" rx="0" ry="0" transform="translate(265.5 212.22)"></rect><path d="M283.433 213.595v-2.72h8.98v2.72Z"></path><rect width="8.98" height="2.72" x="-4.49" y="-1.36" fill="none" rx="0" ry="0" transform="translate(288.42 212.74)"></rect><path d="M316.953 220.505q0 1.71-.64 3.21-.65 1.5-1.77 2.63-1.13 1.12-2.63 1.77-1.5.64-3.21.64h-.96q-1.71 0-3.22-.64-1.51-.65-2.64-1.77-1.12-1.13-1.77-2.63-.64-1.5-.64-3.21v-1.33l3.02-.5v1.83q0 1.13.42 2.1.43.97 1.16 1.71.74.74 1.71 1.16.98.42 2.1.42h.68q1.1 0 2.09-.42.98-.42 1.71-1.16t1.15-1.71q.42-.97.42-2.1v-25.83h3.02z"></path><rect width="17.48" height="34.08" x="-8.74" y="-17.04" fill="none" rx="0" ry="0" transform="translate(308.71 212.22)"></rect><path d="M326.903 228.285v-33.61h3.02v33.61Z"></path><rect width="3.02" height="33.61" x="-1.51" y="-16.8" fill="none" rx="0" ry="0" transform="translate(328.91 211.98)"></rect><path d="M348.983 197.565v30.72h-3.02v-30.72h-8.02v-2.89h19.05v2.89Z"></path><rect width="19.05" height="33.61" x="-9.53" y="-16.8" fill="none" rx="0" ry="0" transform="translate(347.97 211.98)"></rect><path d="M383.443 220.505q0 1.71-.69 3.21-.7 1.5-1.86 2.63-1.16 1.12-2.69 1.77-1.54.64-3.25.64h-2.41q-1.71 0-3.25-.64-1.53-.65-2.69-1.77-1.16-1.13-1.85-2.63-.7-1.5-.7-3.21v-1.33l3.03-.5v1.83q0 1.13.45 2.1.46.97 1.23 1.71.78.74 1.8 1.16 1.02.42 2.14.42h2.11q1.13 0 2.13-.42 1.01-.42 1.79-1.16.77-.74 1.23-1.71.45-.97.45-2.1v-1q0-1.74-.68-2.89-.68-1.15-1.8-1.95-1.13-.81-2.54-1.38-1.42-.56-2.92-1.12t-2.92-1.24q-1.42-.68-2.54-1.7-1.13-1.02-1.81-2.5-.68-1.47-.68-3.63v-.63q0-1.71.65-3.21.64-1.5 1.77-2.63 1.12-1.12 2.63-1.77 1.52-.64 3.23-.64h2.15q1.71 0 3.21.64 1.5.65 2.63 1.77 1.12 1.13 1.77 2.63.64 1.5.64 3.21v.86l-3.02.5v-1.36q0-1.13-.42-2.1-.42-.97-1.15-1.7t-1.7-1.15q-.97-.42-2.1-.42h-1.87q-1.13 0-2.1.42-.97.42-1.71 1.15t-1.16 1.7q-.42.97-.42 2.1v.63q0 1.62.68 2.72t1.8 1.88q1.13.79 2.54 1.36 1.42.58 2.92 1.18 1.5.59 2.92 1.31 1.42.71 2.54 1.76 1.13 1.04 1.81 2.54.68 1.5.68 3.66Z"></path><rect width="19.39" height="34.54" x="-9.7" y="-17.27" fill="none" rx="0" ry="0" transform="translate(374.25 211.99)"></rect><path d="M411.573 220.505q0 1.71-.65 3.21-.64 1.5-1.77 2.63-1.12 1.12-2.62 1.77-1.5.64-3.21.64h-2.39q-1.71 0-3.23-.64-1.51-.65-2.63-1.77-1.13-1.13-1.77-2.63-.65-1.5-.65-3.21v-25.83h3.03v25.83q0 1.13.42 2.1.42.97 1.16 1.71t1.71 1.16q.97.42 2.1.42h2.11q1.12 0 2.09-.42.98-.42 1.7-1.16.73-.74 1.15-1.71.42-.97.42-2.1v-25.83h3.03z"></path><rect width="18.92" height="34.08" x="-9.46" y="-17.04" fill="none" rx="0" ry="0" transform="translate(402.61 212.22)"></rect><path d="M339.613 135.475v-11.21h6.31v.97h-5.3v4.16h4.29v.96h-4.29v4.16h5.3v.96Z"></path><rect width="6.31" height="11.21" x="-3.15" y="-5.61" fill="none" rx="0" ry="0" transform="translate(343.27 130.37)"></rect><path d="M355.603 132.875q0 .57-.23 1.07-.23.5-.62.88-.39.37-.9.59-.51.21-1.08.21h-.81q-.57 0-1.08-.21-.51-.22-.9-.59-.38-.38-.61-.88-.23-.5-.23-1.07v-.44l1-.17v.61q0 .38.16.7.15.33.41.57.25.25.59.39.34.14.72.14h.7q.38 0 .71-.14.34-.14.6-.39.25-.24.41-.57.15-.32.15-.7v-.33q0-.58-.23-.96-.22-.39-.6-.66-.37-.26-.85-.45-.47-.19-.97-.38-.5-.18-.97-.41-.47-.23-.85-.57-.37-.34-.6-.83-.23-.49-.23-1.21v-.21q0-.57.22-1.07.21-.5.59-.88.37-.37.88-.59.5-.21 1.07-.21h.72q.57 0 1.07.21.5.22.87.59.38.38.59.88.22.5.22 1.07v.29l-1.01.16v-.45q0-.38-.14-.7-.14-.33-.38-.57-.24-.24-.57-.38-.32-.14-.7-.14h-.62q-.38 0-.7.14-.33.14-.57.38-.25.24-.39.57-.14.32-.14.7v.21q0 .54.23.91.22.36.6.62.37.27.85.46l.97.39q.5.2.97.44.47.23.85.58.37.35.6.85.23.5.23 1.22Z"></path><rect width="6.46" height="11.51" x="-3.23" y="-5.75" fill="none" rx="0" ry="0" transform="translate(352.87 130.37)"></rect><path d="M362.103 125.235v10.24h-1.01v-10.24h-2.67v-.97h6.35v.97Z"></path><rect width="6.35" height="11.21" x="-3.17" y="-5.61" fill="none" rx="0" ry="0" transform="translate(362.1 130.37)"></rect><path d="M366.513 135.475v-1.21h1.2v1.21Z"></path><rect width="1.2" height="1.21" x="-.6" y="-.6" fill="none" rx="0" ry="0" transform="translate(367.61 135.37)"></rect><path d="M379.423 125.075q-.37 0-.7.14-.32.14-.57.38-.24.24-.38.57-.14.32-.14.7v.45l-1.01-.16v-.29q0-.57.22-1.07.21-.5.59-.88.37-.37.87-.59.5-.21 1.07-.21h.48q.57 0 1.07.2.51.2.88.59.38.38.59.92.22.53.22 1.2 0 .67-.2 1.34t-.52 1.32q-.33.65-.75 1.26t-.85 1.14q-1.03 1.26-2.32 2.43h4.72v.96h-6.31v-.8q1.46-1.2 2.61-2.49.49-.56.96-1.18.47-.63.84-1.29.36-.66.59-1.34.22-.68.22-1.35 0-.49-.15-.86-.15-.36-.4-.61-.25-.24-.57-.36-.33-.12-.68-.12Z"></path><rect width="6.31" height="11.36" x="-3.15" y="-5.68" fill="none" rx="0" ry="0" transform="translate(380.04 130.3)"></rect><path d="M392.363 132.875q0 .57-.21 1.07-.22.5-.59.88-.38.37-.88.59-.5.21-1.07.21h-.47q-.57 0-1.08-.21-.5-.22-.88-.59-.37-.38-.59-.88-.21-.5-.21-1.07v-6.01q0-.57.21-1.07.22-.5.59-.88.38-.37.88-.59.51-.21 1.08-.21h.47q.57 0 1.07.21.5.22.88.59.37.38.59.88.21.5.21 1.07zm-1-6.01q0-.38-.14-.7-.14-.33-.39-.57-.24-.24-.56-.38-.33-.14-.7-.14h-.39q-.37 0-.69.14-.33.14-.57.38-.25.24-.39.57-.14.32-.14.7v6.01q0 .38.14.7.14.33.39.57.24.25.57.39.32.14.69.14h.39q.37 0 .7-.14.32-.14.56-.39.25-.24.39-.57.14-.32.14-.7Z"></path><rect width="5.98" height="11.51" x="-2.99" y="-5.75" fill="none" rx="0" ry="0" transform="translate(389.87 130.37)"></rect><path d="M398.793 125.075q-.38 0-.7.14-.33.14-.57.38-.24.24-.38.57-.14.32-.14.7v.45l-1.01-.16v-.29q0-.57.21-1.07.22-.5.59-.88.38-.37.88-.59.5-.21 1.07-.21h.47q.58 0 1.08.2.5.2.88.59.37.38.59.92.21.53.21 1.2 0 .67-.2 1.34t-.52 1.32q-.32.65-.74 1.26t-.86 1.14q-1.02 1.26-2.32 2.43h4.72v.96h-6.3v-.8q1.46-1.2 2.61-2.49.49-.56.96-1.18.47-.63.83-1.29.37-.66.59-1.34.22-.68.22-1.35 0-.49-.14-.86-.15-.36-.4-.61-.25-.24-.58-.36-.32-.12-.67-.12Z"></path><rect width="6.3" height="11.36" x="-3.15" y="-5.68" fill="none" rx="0" ry="0" transform="translate(399.4 130.3)"></rect><path d="M411.443 132.875q0 .57-.21 1.07-.22.5-.59.88-.38.37-.88.59-.5.21-1.07.21h-.48q-.57 0-1.07-.21-.5-.22-.88-.59-.37-.38-.59-.88-.21-.5-.21-1.07v-.17h1v.17q0 .38.14.7.14.33.39.57.25.25.57.39.33.14.7.14h.38q.38 0 .7-.14.33-.14.57-.39.24-.24.38-.57.14-.32.14-.7v-2.17q0-.37-.14-.7-.14-.32-.38-.57-.24-.24-.57-.38-.32-.14-.7-.14h-.38q-.37 0-.7.14-.32.14-.57.38-.25.25-.39.57-.14.33-.14.7h-1l.64-6.44h4.79v.97h-3.85l-.37 3.44q.36-.34.84-.53.48-.2 1.02-.2h.16q.57 0 1.07.22.5.21.88.59.37.37.59.88.21.5.21 1.07z"></path><rect width="5.98" height="11.36" x="-2.99" y="-5.68" fill="none" rx="0" ry="0" transform="translate(408.95 130.44)"></rect><path d="M40.434 70.144c1.762-1.221 3.93-2.636 6.576-3.972 2.637-1.346 5.699-2.666 9.118-3.887a103.991 103.991 0 0 1 11.265-3.154l3.06-.6.811-.134.406-.068a4.5 4.5 0 0 0 1.006-.325 4.414 4.414 0 0 0 2.466-3.219l.167-2.102.088-1.585c.01-1.065.187-2.126.38-3.19 1.294-8.564 5.784-17.06 11.911-24.234a79.26 79.26 0 0 1 10.005-10.051 139.936 139.936 0 0 1 3.89-3.121c-.943 4.1-1.159 8.18-1.192 11.996-.006 4.44.665 8.564 1.372 12.307a76.479 76.479 0 0 0 5.918 17.252c1.926 3.94 3.33 6.006 3.33 6.006s-.916-2.325-2.121-6.47a107.705 107.705 0 0 1-1.874-7.527c-.661-2.908-1.103-6.242-1.552-9.837-.278-3.616-.481-7.53-.203-11.607.347-4.06.924-8.328 2.309-12.47l.226-.786.114-.397c.17-.651.086-.229.194-.815.255-1.873-.452-3.301-1.644-4.343a4.683 4.683 0 0 0-5.663-.255l-.373.249-.743.498a71.491 71.491 0 0 0-6.026 4.463 85.835 85.835 0 0 0-10.99 10.712c-3.302 3.99-6.203 8.371-8.44 13.041-2.312 4.64-3.603 9.71-4.17 14.63a23.605 23.605 0 0 0-.261 3.677l-.016 1.817.006.773-.38.095c-1.117.288-2.19.59-3.235.898a77.334 77.334 0 0 0-11.485 4.414 60.049 60.049 0 0 0-8.98 5.22c-2.564 1.73-4.543 3.59-6.121 5.122-1.546 1.579-2.643 2.915-3.311 3.881l-1.054 1.448 1.316-1.209c.829-.828 2.194-1.857 3.9-3.14M102.35 7.3l.003-.03.02-.062zm.006-.062.004-.069c.049-.167.016-.03-.004.069M17.54 112.679c1.539-3.275 2.878-6.6 4.627-9.599.776-1.552 1.677-3 2.545-4.43.86-1.435 1.67-2.866 2.61-4.16a152.217 152.217 0 0 1 5.276-7.342c1.781-2.168 3.405-4.189 4.948-5.895 1.552-1.693 2.908-3.193 4.094-4.356 2.335-2.37 3.798-3.632 3.798-3.632l-1.23.632c-.787.443-1.982 1.045-3.38 1.992a60.503 60.503 0 0 0-4.982 3.54c-1.876 1.444-3.9 3.19-6.022 5.2-2.073 2.057-4.313 4.317-6.41 6.946-1.12 1.261-2.118 2.673-3.176 4.094-1.094 1.398-2.093 2.908-3.032 4.493-2.005 3.095-3.786 6.478-5.46 9.985-1.477 3.59-3.01 7.235-4.074 11.043a43.527 43.527 0 0 0-1.437 5.731c-.377 1.93-.813 3.839-1.13 5.751a162.104 162.104 0 0 0-.596 5.731l-.246 2.712-.16 2.813a113.868 113.868 0 0 0 .979 19.862c.796 5.757 1.922 10.473 2.911 13.702.426 1.628.953 2.863 1.225 3.72l.459 1.304-.4-5.253c-.262-3.324-.426-8.072-.442-13.722.062-5.652.298-12.241 1.022-19.19l.304-2.575.416-2.73c.288-1.76.547-3.541.773-5.342.334-1.782.783-3.554 1.166-5.345a41.067 41.067 0 0 1 1.44-5.312c.915-3.57 2.28-6.988 3.584-10.368m30.898 82.645a61.178 61.178 0 0 1-6.85-8.377 71.046 71.046 0 0 1-3.194-5.178 83.815 83.815 0 0 1-2.882-5.606 160.028 160.028 0 0 1-4.925-11.623 259.202 259.202 0 0 1-3.684-10.545l-3.35-10.653s-.19 1.126-.348 3.108c-.157 1.997-.239 4.843.023 8.256a64.941 64.941 0 0 0 1.87 11.544 68.15 68.15 0 0 0 4.503 12.716c1.009 2.096 2.076 4.094 3.367 6.095 1.205 1.968 2.662 3.733 4.07 5.42 2.863 3.343 6.082 6.006 9.098 7.81a27.296 27.296 0 0 0 7.729 3.321c.96.292 1.768.357 2.289.452l.809.124s-.98-.612-2.551-1.758a46.978 46.978 0 0 1-5.974-5.106"></path><path d="M115.335 35.185a58.53 58.53 0 0 1 3.9-3.252c1.408-1.097 2.984-2.125 4.621-3.14 1.618-1.045 3.416-1.917 5.233-2.778.298-.13.593-.272.891-.41a88.708 88.708 0 0 0-2.155 3.885c-1.935 3.835-3.278 7.696-3.877 11.135-.668 3.422-.557 6.382-.21 8.357.118.992.4 1.749.55 2.256l.24.77.114-.802c.062-.521.187-1.268.4-2.198.39-1.863 1.195-4.401 2.502-7.273 1.313-2.872 3.127-6.065 5.288-9.376 1.062-1.66 2.306-3.308 3.498-4.985l.937-1.254.494-.652a5.066 5.066 0 0 0 .894-1.837c.75-3.222-1.611-6.455-5.344-6.212-.695.091-.734.144-.855.167l-.364.114-.101.043-.203.082-.812.33-1.621.665c-1.098.4-2.096 1.022-3.128 1.533a37.792 37.792 0 0 0-5.659 3.72 31.878 31.878 0 0 0-4.63 4.28c-1.386 1.441-2.506 2.974-3.459 4.422a30.26 30.26 0 0 0-3.648 7.44c-.606 1.903-.724 3.036-.724 3.036s2.558-3.77 7.228-8.066m18.873-11.299.033-.013c.072-.013.088-.013-.033.013M114.1 53.026l12.7 4.798a117.765 117.765 0 0 1 12.166 5.502 82.46 82.46 0 0 1 2.85 1.582c.953.57 1.987 1.11 2.78 1.637 1.7 1.068 3.108 2.329 4.021 3.635.891 1.324 1.248 2.656 1.242 4.19-.046.749-.095 1.666-.275 2.357-.03.282-.236.98-.36 1.487-.086.249-.315.367-.403.573l-1.448 3.376 2.954 2.139c4.172 3.016 8.564 5.112 12.644 7.152 2.04 1.025 4.051 1.949 5.918 2.97l1.366.764 1.3.776 2.41 1.542.043.036 1.346 1.173 2.066.055 5.024.138 2.512.069.363.01.033.003.15.016.299.03 1.146.127c1.474.19 2.803.403 3.845.73a6.82 6.82 0 0 1 1.244.515c.285.137.511.393.462.33-.046-.035-.111-.157-.092-.16l.23.347.006.02a2.61 2.61 0 0 1 .069.652c.003.73-.193 1.594-.518 2.213l-.262.443c-.186.239.04-.017-.357.445-.314.347-.93 1.012-1.391 1.464a22.905 22.905 0 0 1-3.013 2.558 11.174 11.174 0 0 1-1.323.825c-.082.036-.027.033-.22.111l-.52.216a10.057 10.057 0 0 0-2.555 1.464 10.303 10.303 0 0 0-3.914 7.683l-.006.96a1.72 1.72 0 0 1-.213.772c.213-.12-.203.22-1.35.364l-.93.105-.507.04-.14.002-.315.01-2.512.076-2.512.078c-.435.05-1.483.013-2.194.026a168.73 168.73 0 0 1-9.736-.396c-6.616-.426-13.519-1.005-20.626-.527a65.983 65.983 0 0 0-10.67 1.483 51.724 51.724 0 0 0-10.223 3.53 47.823 47.823 0 0 0-9.216 5.61 42.61 42.61 0 0 0-7.457 7.726c-2.04 2.725-3.95 5.977-5 9.31a21.781 21.781 0 0 0-.862 10.343l.655-.02c-.167-3.31.51-6.612 1.808-9.651 1.27-3.069 3.163-5.8 5.377-8.302 4.369-4.994 10.06-8.757 16.22-11.21 6.174-2.46 12.842-3.58 19.48-3.671 6.664-.125 13.322.616 19.996 1.228 3.34.308 6.691.583 10.058.704 1.683.082 3.402.036 5.056 0 1.66-.049 3.357.003 5.083-.226 1.696-.22 3.537-.704 4.919-2.014 1.359-1.284 2.07-3.082 2.226-4.873.056-.996-.026-1.637.256-2.319a3.803 3.803 0 0 1 1.244-1.719c.528-.458 1.271-.606 2.13-1.038a17.03 17.03 0 0 0 2.246-1.336 28.275 28.275 0 0 0 3.887-3.357c1.153-1.208 2.43-2.47 3.186-4.12a11.452 11.452 0 0 0 1.1-5.155c.01-1.732-.657-3.717-1.915-4.974-2.666-2.67-6.357-3.121-9.658-3.478-3.38-.282-6.599-.082-9.903-.131l-.092-.075-.032-.027-.033-.02c-1.939-1.185-3.937-2.393-6.01-3.412-2.063-1.034-4.162-1.965-6.258-2.891-4.067-1.798-8.145-3.577-11.832-5.977a9.42 9.42 0 0 0 .848-2.947c.2-1.163.216-2.322.16-3.495a11.479 11.479 0 0 0-2.57-6.448c-1.503-1.798-3.413-3.183-5.424-4.27a74.56 74.56 0 0 0-6.17-2.915c-8.373-3.544-17.176-5.84-25.953-8.01z"></path><path d="M129.093 77.36c.167.621.376 1.286.736 1.987.354.681.852 1.405 1.877 2.188l.442.314.197.13.098.066.049.033.013.01.278.121.043.017c.462.2.937.357 1.424.465.973.222 1.946.21 2.856.114A14.036 14.036 0 0 0 142 81.214l1.094-.616c.059-.003 1.257-.747 1.752-1.611a5.007 5.007 0 0 0-.19-5.794c-1.061-1.182-1.127-.976-1.5-1.3l-.98-.668c-.631-.468-1.352-.815-2.043-1.189a13.948 13.948 0 0 0-2.119-.982 14.636 14.636 0 0 0-2.155-.753 19.45 19.45 0 0 0-4.234-.793 17.54 17.54 0 0 0-3.825.072 16.135 16.135 0 0 0-5.394 1.53c-1.205.605-1.788 1.116-1.788 1.116s3.085.063 6.966 1.09c.448.119.936.312 1.408.463-.203 1.313-.468 3.17.102 5.58m4.709-3.65a29.22 29.22 0 0 1 3.18 1.825c.33.21.655.442.979.665a10.951 10.951 0 0 1-1.883.884c-.897.216-1.26.432-2.047.101.03.06-.318-.078-.616-.353a5.25 5.25 0 0 1-.864-.943 20.851 20.851 0 0 1-1.893-3.56 26.65 26.65 0 0 1 3.144 1.382m127.806 118.722a292.527 292.527 0 0 0-16.607-2.895c-6.448-.936-13.768-1.83-21.81-2.204a222.69 222.69 0 0 0-12.6-.288 142.226 142.226 0 0 0-13.502.698c-9.33 1.038-18.997 3.524-28.452 7.172-9.5 3.57-18.92 8.014-28.341 12.546-4.755 2.263-9.399 4.48-14.272 6.599-4.745 2.03-9.494 3.812-14.521 4.935-9.952 2.466-20.373 3.134-30.486 2.273-10.087-.894-20.03-3.13-28.891-6.78-2.191-.798-4.467-1.977-6.678-2.986l-2.967-1.63c-.992-.58-1.932-1.232-2.895-1.838a47.928 47.928 0 0 1-9.831-8.976c-5.554-6.734-9.104-14.502-11.135-21.995-2.112-7.49-2.679-14.73-3.124-21.172a146.178 146.178 0 0 1-.092-16.695c.289-4.624.665-8.263 1.048-10.722.364-2.466.642-3.773.642-3.773s-.396 1.27-.989 3.7a92.057 92.057 0 0 0-1.965 10.677 147.315 147.315 0 0 0-1.07 16.869c-.01 6.49.029 14.007 1.915 22.014 1.736 7.977 5.083 16.531 10.965 24.13a53.001 53.001 0 0 0 10.525 10.318c1.042.714 2.067 1.474 3.144 2.155l3.403 1.968c2.227 1.071 4.322 2.23 6.798 3.22a100.66 100.66 0 0 0 30.637 7.8c10.748.993 21.857.37 32.595-2.203 5.368-1.222 10.617-3.24 15.592-5.417 4.837-2.145 9.71-4.51 14.396-6.786 9.455-4.552 18.55-9.261 27.686-12.867 9.098-3.678 18.17-6.39 26.986-7.696 4.349-.625 8.825-.923 13.073-1.166a220.486 220.486 0 0 1 12.304-.33c15.847.094 29.097 1.362 38.31 2.597 9.222 1.211 14.461 2.207 14.461 2.207s-5.102-1.556-14.252-3.459"></path></svg></svg>