<svg xmlns="http://www.w3.org/2000/svg" version="1.1" xmlns:xlink="http://www.w3.org/1999/xlink" width="1500" height="1500" viewBox="0 0 1500 1500"><rect width="1500" height="1500" x="0" y="0" id="background" stroke="transparent" fill="#ffffff"></rect><svg xml:space="preserve" width="1000" height="1000" data-version="2" data-id="lg_Y9OUzKr1ErS77r2bzJ" viewBox="0 0 494 166" x="250" y="250"><rect width="100%" height="100%" fill="transparent"></rect><path d="M192.416 36.4h-11.09v32.9h2.68V57.79h8.41q.47 0 .92-.03.44-.02.87-.07.42-.05.79-.14l4.28 11.75h2.68l-4.56-12.45q1.51-.76 2.47-2.03.96-1.26 1.43-3.19t.47-4.61q0-3.01-.61-5.05t-1.81-3.27q-1.2-1.22-2.94-1.76-1.73-.54-3.99-.54m.23 18.8h-8.64V38.89h8.64q1.37 0 2.54.35 1.18.36 2.05 1.23.87.87 1.36 2.46.49 1.6.49 4.09 0 2.68-.49 4.33-.49 1.64-1.39 2.46-.89.83-2.04 1.11-1.15.28-2.52.28"></path><rect width="20.63" height="32.9" x="-10.31" y="-16.45" fill="none" rx="0" ry="0" transform="translate(192.14 53.35)"></rect><path d="m207.926 38.7 3.2.1v30.5h2.63V36.4h-5.83Z"></path><rect width="5.83" height="32.9" x="-2.92" y="-16.45" fill="none" rx="0" ry="0" transform="translate(211.34 53.35)"></rect><path d="m236.126 39.27.8-1.79q-1.46-.8-3.15-1.17-1.69-.38-3.53-.38-2.58 0-4.65.99-2.07.98-3.29 3.05-1.22 2.07-1.22 5.36v15.32q0 3.15 1.13 5.17t3.24 2.99q2.12.96 5.08.96 1.78 0 3.69-.4 1.9-.4 3.87-1.15l-.56-2.16q-1.32.42-2.54.73-1.22.3-2.28.47-1.06.16-2 .16-2.35 0-3.9-.68-1.55-.68-2.3-2.21-.75-1.53-.75-3.97V45.14q0-2.49.87-3.99.87-1.51 2.51-2.19 1.65-.68 3.95-.68 1.22 0 2.47.24 1.24.23 2.56.75"></path><rect width="17.01" height="33.84" x="-8.51" y="-16.92" fill="none" rx="0" ry="0" transform="translate(230.09 53.35)"></rect><path d="M263.056 49.94h-14.9V36.4h-2.68v32.9h2.68V52.52h14.9V69.3h2.68V36.4h-2.68Z"></path><rect width="20.26" height="32.9" x="-10.13" y="-16.45" fill="none" rx="0" ry="0" transform="translate(256.1 53.35)"></rect><path d="M275.696 36.4h-2.68v32.9h2.68V44.16l8.46 25.14h2.87l8.6-25.14V69.3h2.63V36.4h-2.63l-10.06 28.86Z"></path><rect width="25.24" height="32.9" x="-12.62" y="-16.45" fill="none" rx="0" ry="0" transform="translate(286.14 53.35)"></rect><path d="M305.216 45.42v15.14q0 3.05 1.34 5.12 1.34 2.07 3.59 3.1 2.26 1.04 5.03 1.04 2.92 0 5.15-1.13 2.23-1.13 3.48-3.2 1.24-2.06 1.24-4.93V45.47q0-4.6-2.58-7.21-2.59-2.61-7.24-2.61t-7.33 2.49q-2.68 2.49-2.68 7.28m2.68 15.09V45q0-2.3.89-3.81.89-1.5 2.52-2.27 1.62-.78 3.78-.78 2.26 0 3.9.78 1.65.77 2.54 2.27.89 1.51.89 3.81v15.51q0 2.3-.94 3.83-.94 1.53-2.58 2.26-1.65.73-3.81.73-2.07 0-3.69-.78-1.62-.77-2.56-2.28-.94-1.5-.94-3.76"></path><rect width="19.83" height="34.17" x="-9.91" y="-17.09" fill="none" rx="0" ry="0" transform="translate(315.63 53.23)"></rect><path d="M355.556 36.4h-2.64v28.06l-17.86-28.06h-2.67v32.9h2.67V41.24l17.86 28.06h2.64Z"></path><rect width="23.17" height="32.9" x="-11.59" y="-16.45" fill="none" rx="0" ry="0" transform="translate(344.47 53.35)"></rect><path d="M371.716 36.4h-8.88v32.9h9.82q3.34 0 5.55-1.06 2.21-1.05 3.31-3.15 1.11-2.09 1.11-5.19V46.98q0-3.2-1.25-5.57-1.24-2.38-3.66-3.69-2.42-1.32-6-1.32m.15 30.55h-6.35v-28.2h6.67q2.78 0 4.47 1.03 1.69 1.04 2.49 2.75.8 1.72.8 3.74v14.1q0 1.6-.49 2.84-.5 1.25-1.51 2.07-1.01.82-2.51 1.25-1.51.42-3.57.42"></path><rect width="19.79" height="32.9" x="-9.89" y="-16.45" fill="none" rx="0" ry="0" transform="translate(373.23 53.35)"></rect><path d="M423.236 49.94h-14.9V36.4h-2.68v32.9h2.68V52.52h14.9V69.3h2.68V36.4h-2.68Z"></path><rect width="20.26" height="32.9" x="-10.13" y="-16.45" fill="none" rx="0" ry="0" transform="translate(416.29 53.35)"></rect><path d="m433.806 38.7 3.2.1v30.5h2.63V36.4h-5.83Z"></path><rect width="5.83" height="32.9" x="-2.92" y="-16.45" fill="none" rx="0" ry="0" transform="translate(437.22 53.35)"></rect><path d="M446.916 69.3h16.97v-2.35h-14.29V36.4h-2.68Z"></path><rect width="16.97" height="32.9" x="-8.48" y="-16.45" fill="none" rx="0" ry="0" transform="translate(455.9 53.35)"></rect><path d="M471.216 69.3h16.97v-2.35h-14.29V36.4h-2.68Z"></path><rect width="16.97" height="32.9" x="-8.48" y="-16.45" fill="none" rx="0" ry="0" transform="translate(480.2 53.35)"></rect><path d="M187.196 118.41V91.1h-5.83v2.31l3.15.09v25.15q0 1.83-.54 3.03-.54 1.2-1.41 1.76-.87.56-1.9.56l.61 1.74q1.65 0 2.77-.58 1.13-.59 1.84-1.63.7-1.03 1.01-2.35.3-1.31.3-2.77"></path><rect width="6.53" height="34.64" x="-3.27" y="-17.32" fill="none" rx="0" ry="0" transform="translate(184.43 108.92)"></rect><path d="m195.096 93.41 3.19.09V124h2.64V91.1h-5.83Z"></path><rect width="5.83" height="32.9" x="-2.92" y="-16.45" fill="none" rx="0" ry="0" transform="translate(198.51 108.05)"></rect><path d="M227.996 115.26V91.1h-2.63v24.12q0 2.25-.92 3.78-.92 1.53-2.54 2.28-1.62.75-3.78.75-2.16 0-3.79-.78-1.62-.77-2.53-2.27-.92-1.51-.92-3.76V91.1h-2.63v24.16q0 3.06 1.24 5.13 1.25 2.06 3.51 3.1 2.25 1.03 5.17 1.03 2.91 0 5.12-1.06 2.21-1.05 3.45-3.12 1.25-2.07 1.25-5.08"></path><rect width="19.74" height="33.42" x="-9.87" y="-16.71" fill="none" rx="0" ry="0" transform="translate(218.63 108.31)"></rect><path d="M235.566 107.27h15.04v-2.72h-15.04Z"></path><rect width="15.04" height="2.72" x="-7.52" y="-1.36" fill="none" rx="0" ry="0" transform="translate(243.59 106.41)"></rect><path d="M263.336 118.41V91.1h-5.83v2.31l3.15.09v25.15q0 1.83-.54 3.03-.54 1.2-1.41 1.76-.87.56-1.9.56l.61 1.74q1.65 0 2.77-.58 1.13-.59 1.84-1.63.7-1.03 1.01-2.35.3-1.31.3-2.77"></path><rect width="6.53" height="34.64" x="-3.27" y="-17.32" fill="none" rx="0" ry="0" transform="translate(260.57 108.92)"></rect><path d="m271.236 93.41 3.19.09V124h2.64V91.1h-5.83Z"></path><rect width="5.83" height="32.9" x="-2.92" y="-16.45" fill="none" rx="0" ry="0" transform="translate(274.65 108.05)"></rect><path d="M295.256 93.45h8.27V91.1h-18.9v2.35h8.04V124h2.59Z"></path><rect width="18.9" height="32.9" x="-9.45" y="-16.45" fill="none" rx="0" ry="0" transform="translate(294.58 108.05)"></rect><path d="m325.986 94.68.76-2.26q-1.09-.61-2.28-.99-1.2-.37-2.42-.56-1.23-.19-2.5-.19-1.92 0-3.78.42-1.86.43-3.38 1.37-1.53.94-2.45 2.49-.91 1.55-.91 3.76 0 1.83.75 3.19.75 1.37 2.02 2.35 1.27.99 2.87 1.77 1.59.77 3.26 1.43 1.67.66 3.27 1.36 1.6.71 2.87 1.58 1.27.87 2.02 2.02t.75 2.75q0 1.88-.68 3.19-.68 1.32-1.88 2.12-1.2.8-2.73 1.17-1.53.38-3.17.38-1.6 0-3.38-.45-1.79-.44-3.39-1.34-1.6-.89-2.58-2.2l-1.65 1.64q1.46 1.69 3.2 2.77 1.74 1.08 3.76 1.6 2.02.52 4.23.52 2.07 0 4.04-.52 1.97-.52 3.57-1.62 1.6-1.1 2.54-2.82.94-1.72.94-4.07 0-2.16-.75-3.73-.75-1.58-2.05-2.68-1.29-1.11-2.86-1.93-1.58-.82-3.29-1.48-1.72-.66-3.29-1.31-1.58-.66-2.87-1.46-1.29-.8-2.05-1.88-.75-1.08-.75-2.59 0-1.55.73-2.58.73-1.04 1.93-1.62 1.2-.59 2.56-.83 1.36-.23 2.63-.23 1.13 0 2.23.14 1.11.14 2.17.47 1.05.33 1.99.85"></path><rect width="22.28" height="33.89" x="-11.14" y="-16.95" fill="none" rx="0" ry="0" transform="translate(319.02 108.12)"></rect><path d="M357.006 115.26V91.1h-2.63v24.12q0 2.25-.92 3.78-.91 1.53-2.53 2.28-1.62.75-3.79.75-2.16 0-3.78-.78-1.62-.77-2.54-2.27-.91-1.51-.91-3.76V91.1h-2.64v24.16q0 3.06 1.25 5.13 1.24 2.06 3.5 3.1 2.26 1.03 5.17 1.03t5.12-1.06q2.21-1.05 3.46-3.12 1.24-2.07 1.24-5.08"></path><rect width="19.74" height="33.42" x="-9.87" y="-16.71" fill="none" rx="0" ry="0" transform="translate(347.64 108.31)"></rect><path d="M191.296 150.83v-10.19h6.21v1.15h-4.91v3.32h4.57v1.15h-4.57v3.42h4.97v1.15Z"></path><rect width="6.27" height="10.19" x="-3.13" y="-5.09" fill="none" rx="0" ry="0" transform="translate(194.93 146.23)"></rect><path d="M204.386 151.01q-1.1 0-1.91-.36-.81-.36-1.27-.99-.46-.64-.52-1.5h1.34q.05.58.39.95.33.37.85.55.53.18 1.12.18.69 0 1.24-.22.55-.23.87-.64.32-.41.32-.95 0-.49-.27-.8-.28-.31-.74-.5-.46-.2-1-.35l-1.23-.35q-1.23-.35-1.92-1-.68-.65-.68-1.66 0-.86.46-1.51.47-.64 1.26-1 .8-.35 1.78-.35 1 0 1.78.35.77.36 1.22.97.45.61.47 1.38h-1.27q-.09-.74-.71-1.15-.62-.41-1.53-.41-.66 0-1.15.22-.5.21-.77.59-.28.37-.28.85 0 .53.34.86.33.32.78.5.46.18.83.29l1.01.28q.41.11.91.3t.95.51q.45.31.74.8.29.49.29 1.2 0 .84-.43 1.51-.44.67-1.27 1.06-.82.39-2 .39"></path><rect width="7.4" height="10.5" x="-3.7" y="-5.25" fill="none" rx="0" ry="0" transform="translate(204.89 146.26)"></rect><path d="M210.896 141.79v-1.15h7.69v1.15h-3.19v9.04h-1.3v-9.04Z"></path><rect width="7.69" height="10.19" x="-3.85" y="-5.09" fill="none" rx="0" ry="0" transform="translate(215.24 146.23)"></rect><path d="M222.216 150.92q-.38 0-.65-.27t-.27-.66q0-.38.27-.65t.65-.27q.39 0 .66.27t.27.65q0 .39-.27.66t-.66.27"></path><rect width="1.85" height="1.85" x="-.93" y="-.93" fill="none" rx="0" ry="0" transform="translate(222.72 150.5)"></rect><path d="M232.056 150.83v-.94l3.38-3.67q.57-.61.95-1.08.37-.46.56-.88.19-.43.19-.9 0-.53-.25-.92t-.68-.6q-.43-.21-.98-.21-.58 0-1.01.24-.43.24-.66.66-.23.43-.23 1h-1.24q0-.9.41-1.58.42-.69 1.14-1.06.72-.38 1.62-.38.91 0 1.61.38.71.37 1.11 1.02.4.64.4 1.44 0 .55-.2 1.08-.2.52-.7 1.18-.5.67-1.4 1.62l-2.23 2.37v.09h4.7v1.14Z"></path><rect width="6.49" height="10.32" x="-3.25" y="-5.16" fill="none" rx="0" ry="0" transform="translate(235.8 146.17)"></rect><path d="M245.366 150.96q-1.13 0-1.93-.61-.8-.62-1.22-1.78-.43-1.17-.43-2.83 0-1.65.43-2.82t1.23-1.79q.8-.62 1.92-.62 1.13 0 1.94.62.8.62 1.22 1.79.43 1.17.43 2.82 0 1.66-.42 2.83-.42 1.16-1.22 1.78-.8.61-1.95.61m0-1.13q.75 0 1.27-.49.52-.48.79-1.39.28-.92.28-2.21 0-1.3-.28-2.22-.27-.92-.79-1.4-.52-.49-1.27-.49-.74 0-1.26.49t-.79 1.41q-.28.91-.28 2.21 0 1.29.28 2.21.27.91.79 1.39.52.49 1.26.49"></path><rect width="7.17" height="10.45" x="-3.58" y="-5.22" fill="none" rx="0" ry="0" transform="translate(245.87 146.23)"></rect><path d="M252.256 150.83v-.94l3.38-3.67q.57-.61.94-1.08.38-.46.57-.88.19-.43.19-.9 0-.53-.25-.92t-.68-.6q-.43-.21-.98-.21-.58 0-1.01.24-.43.24-.66.66-.23.43-.23 1h-1.25q0-.9.42-1.58.42-.69 1.14-1.06.71-.38 1.62-.38.91 0 1.61.38.7.37 1.1 1.02.4.64.4 1.44 0 .55-.2 1.08-.19.52-.69 1.18-.5.67-1.4 1.62l-2.23 2.37v.09h4.69v1.14Z"></path><rect width="6.48" height="10.32" x="-3.24" y="-5.16" fill="none" rx="0" ry="0" transform="translate(256 146.17)"></rect><path d="M265.226 150.96q-.9 0-1.61-.35-.71-.35-1.13-.96-.42-.61-.46-1.39h1.26q.04.45.31.8.26.36.69.56.43.2.94.2.62 0 1.1-.28.48-.29.75-.8.28-.5.28-1.15 0-.65-.29-1.17-.29-.52-.78-.82-.5-.3-1.14-.3-.47 0-.96.15-.48.16-.78.39l-1.22-.15.6-5.05h5.36v1.14h-4.27l-.35 2.98h.06q.31-.26.79-.43.48-.17 1.01-.17.69 0 1.29.26.59.25 1.02.71.44.46.69 1.08.24.63.24 1.36 0 .98-.44 1.75-.44.76-1.21 1.2-.77.44-1.75.44"></path><rect width="6.6" height="10.32" x="-3.3" y="-5.16" fill="none" rx="0" ry="0" transform="translate(265.83 146.3)"></rect><path d="M88.296 141.614H72.993l-9.315-3.38-3.66 2.765 1.855 1.956s8.348 1.627 10.788 6.644c1.552 3.176-.667 4.608-.667 4.608l6.654 3.38 1.996 5.224 1.996-5.222 6.655-3.38s-2.22-1.434-.667-4.608c2.44-5.018 10.787-6.645 10.787-6.645L101.27 141l-3.66-2.765zm31.926-64.974s-1.568-1.075-2.4.615c0 0 .476 3.467 2.4 1.579 0 0 1.235-1.734 0-2.194m19.805 2.194c-1.163-1.032-5.821 2.414-5.821 2.414-1.303 4.408-9.9 8.933-12.119 10.037 2.967-1.342 15.612-6.194 15.612-6.194 4.823-2.304 2.328-6.257 2.328-6.257m-17.94 12.45a6.749 6.749 0 0 0-.523.255s.19-.09.523-.254m24.26-4.046c-2.492 7.525-8.648 5.529-8.648 5.529-2.33 3.84-8.65 2.918-8.65 2.918 13.805 9.064 17.299-8.447 17.299-8.447M117.074 43.46c.333-5.684-11.81-9.062-11.81-9.062-4.824-.153-13.306-2.611-13.306-2.611l-.997 2.61c2.66 2.151 13.06 6.76 13.06 6.76 3.41-.768 13.053 2.303 13.053 2.303m-5.157 8.45s5.503 0 5.162 4.76c0 0 2.656-11.058-18.803-12.75v.462c.002 0 11.645 7.68 13.641 7.527m16.302 11.365s-.999-1.383-2.245-9.677c0 0-7.236 6.144-8.901 3.993 0 0 1.663 4.762-2.661 10.598 0 0 4.158-1.843 7.153-6.604 0 0 4.382-.88-2.093 7.374.002 0 5.087-1.076 8.747-5.684"></path><path d="M134.372 61.279s5.158 7.066 1.998 9.062c0 0-1 2.114-2.663 2.364 0 0 1.431 1.477.549 2.86 0 0 8.6-6.299 10.263 5.683 0 0-.664-7.373 0-9.83 0 0 1.164-5.876 5.822 6.432 0 0 3.992 20.91-2.494 30.587 0 0 7.651-6.759 8.317-33.946 0 0-1.002-20.755-8.984-8.294 0 0-6.82 4.76-7.319-1.69 0 0-.168-5.224 2.328-4.302 0 0 4.657-1.382 2.665-5.221 0 0-10.668-15.054-13.734-11.52 0-.004 4.75 14.897 3.252 17.815m-4.49 38.862c3.993 5.838 7.819 6.298 7.819 6.298 2.827-.154 3.658-6.298 3.658-6.298-6.153 4.146-11.478 0-11.478 0m1.238 22.63s-9.001-6.656-10.663-8.192v3.687s6.985 2.662 8.593 7.066c0 0 2.939 2.764 5.046.512 0 0 1.434-9.942 3.984-12.759-1.428 1.165-4.323 4.029-6.96 9.686m6.96-9.686c.561-.458.894-.656.894-.656-.313.113-.61.34-.894.656"></path><path d="M151.928 108.332s-13.75 3.072-27.059-.41c0 0 13.641 4.608 18.409 4.711 0 0 5.212 2.764 2.219 7.373 0 0 7.096 2.97 10.977.819.001 0-6.651-7.065-4.546-12.493M102.158 53.6c1.996 3.534-1.664 4.762-1.664 4.762-2.107.204-5.212-4.762-5.212-4.762 1.33 4.557 5.877 7.68 5.877 7.68-1.039 4.123 2.86 9.473 2.86 9.473-.801-1.433 0-9.933 0-9.933 3.302-4.097-1.861-7.22-1.861-7.22m-8.762 3.532c0-2.15-6.985-6.836-6.985-6.836.444 2.995-1.22 4.788-1.22 4.788 2.44.41 7.097 9.934 7.097 9.934.887-.717-2.884-7.067-2.884-7.067-.332-3.071 3.992-.82 3.992-.82m-1.33-17.817c-2.883 0-7.874-8.297-7.874-8.297-1.552 10.037 7.875 8.297 7.875 8.297M94.73 49.45s1.44.82 1.773 2.254c0 0-.332-5.224-1.886-5.428 0 0 .553-.716 1.22-1.228 0 0-4.99.307-10.091-3.482v4.198s8.982 3.686 8.65 6.656c0 0 .334-1.742.334-2.97M39.202 91.285c.33.166.523.254.523.254a7.073 7.073 0 0 0-.523-.254M27.083 81.248s-4.658-3.446-5.822-2.414c0 0-2.494 3.953 2.329 6.255 0 0 12.645 4.853 15.612 6.194-2.22-1.104-10.818-5.627-12.119-10.035m-3.493 11.52s-6.154 1.997-8.65-5.528c0 0 3.493 17.511 17.3 8.449 0-.002-6.322.919-8.65-2.92m45.743-60.981s-8.484 2.458-13.306 2.61c0 0-12.144 3.38-11.812 9.063 0 0 9.641-3.073 13.055-2.305 0 0 10.4-4.608 13.06-6.759zm-6.32 12.595v-.462C41.555 45.61 44.21 56.67 44.21 56.67c-.34-4.76 5.163-4.76 5.163-4.76 1.996.152 13.641-7.528 13.641-7.528M39.725 61.586c2.993 4.762 7.153 6.605 7.153 6.605-4.324-5.837-2.66-10.598-2.66-10.598-1.664 2.15-8.9-3.994-8.9-3.994-1.248 8.295-2.246 9.678-2.246 9.678 3.66 4.608 8.745 5.683 8.745 5.683-6.473-8.253-2.092-7.374-2.092-7.374"></path><path d="M13.442 108.435c-6.488-9.675-2.496-30.587-2.496-30.587 4.658-12.308 5.822-6.431 5.822-6.431.664 2.458 0 9.83 0 9.83 1.663-11.983 10.263-5.684 10.263-5.684-.882-1.383.549-2.86.549-2.86-1.664-.248-2.662-2.363-2.662-2.363-3.16-1.996 1.995-9.063 1.995-9.063-1.497-2.918 3.254-17.817 3.254-17.817-3.066-3.533-13.733 11.52-13.733 11.52-1.996 3.841 2.66 5.222 2.66 5.222 2.495-.92 2.329 4.301 2.329 4.301-.499 6.452-7.32 1.69-7.32 1.69-7.982-12.459-8.982 8.295-8.982 8.295.67 27.188 8.321 33.947 8.321 33.947m10.148-1.996s3.825-.46 7.819-6.298c0 0-5.323 4.146-11.477 0-.002 0 .83 6.144 3.658 6.298m-1.275 5.99s.334.196.894.656c-.284-.315-.583-.543-.894-.656m.894.656c2.55 2.817 3.984 12.759 3.984 12.759 2.107 2.252 5.047-.512 5.047-.512 1.607-4.404 8.594-7.066 8.594-7.066v-3.687c-1.664 1.536-10.663 8.192-10.663 8.192-2.64-5.657-5.536-8.52-6.962-9.686"></path><path d="M9.36 108.332c2.106 5.428-4.546 12.493-4.546 12.493 3.88 2.15 10.978-.82 10.978-.82-2.993-4.608 2.217-7.372 2.217-7.372 4.768-.103 18.409-4.711 18.409-4.711-13.307 3.483-27.058.41-27.058.41M60.128 61.28s4.547-3.123 5.877-7.68c0 0-3.105 4.966-5.212 4.762 0 0-3.66-1.228-1.664-4.762 0 0-5.163 3.123-1.861 7.22 0 0 .801 8.499 0 9.933.002-.002 3.9-5.35 2.86-9.473M69 65.017s4.659-9.523 7.098-9.934c0 0-1.663-1.793-1.22-4.788 0 0-6.986 4.685-6.986 6.836 0 0 4.326-2.254 3.993.82 0 0-3.77 6.35-2.885 7.066m8.097-33.998s-4.99 8.296-7.874 8.296c0-.001 9.426 1.739 7.874-8.296"></path><path d="M51.48 17.297c8.206-4.506 16.41-3.073 16.41-3.073 2.773 1.843 5.354-1.536 5.354-1.536 5.132-2.047 5.625 1.946 5.625 1.946-2.662 5.736-4.768 4.609-4.768 4.609-3.991-3.38-4.879-1.639-4.879-1.639-1.554 1.843-4.436 2.254-4.436 2.254-12.31 1.024-21.624 13.516-21.624 13.516 2.995 0 27.169-10.24 27.169-10.24 6.431-2.867 9.094 5.53 9.094 5.53-2.44 6.964 1.22 10.766 1.22 10.766s3.659-3.802 1.22-10.766c0 0 2.662-8.397 9.093-5.53 0 0 24.176 10.24 27.167 10.24 0 0-9.313-12.492-21.623-13.516 0 0-2.883-.41-4.435-2.254 0 0-.886-1.741-4.88 1.639 0 0-2.107 1.127-4.768-4.609 0 0 .494-3.993 5.626-1.946 0 0 2.58 3.38 5.353 1.536 0 0 8.206-1.434 16.413 3.073 0 0 14.561 5.632 21.309 4.505 0 0-15.212-2.764-17.982-4.916 0 0 4.989-2.192 6.543-4.783 0 0-3.66 3.248-9.87.891 0 0-22.845-7.783-29.167-.307-6.322-7.474-29.164.309-29.164.309-6.21 2.355-9.87-.891-9.87-.891 1.552 2.59 6.543 4.783 6.543 4.783-2.773 2.15-17.982 4.916-17.982 4.916 6.745 1.125 21.309-4.507 21.309-4.507m29.164-12.8s9.315-.308 12.754.82c0 0-9.98-3.483-12.754-3.79-2.772.307-12.753 3.79-12.753 3.79 3.438-1.128 12.753-.82 12.753-.82m-5.102 41.268v-4.198c-5.1 3.79-10.09 3.482-10.09 3.482.666.512 1.22 1.228 1.22 1.228-1.553.204-1.886 5.428-1.886 5.428.333-1.433 1.774-2.254 1.774-2.254 0 1.228.332 2.97.332 2.97-.33-2.97 8.65-6.656 8.65-6.656m54.791 31.505c.167-2.15 2.329-3.071 2.329-3.071-3.194-.782-5.945-1.11-8.308-1.13.5.024 1.489 2.665 1.489 2.665.999 9.215-7.319 9.525-7.319 9.525-4.823.46-6.653-4.916-6.653-4.916.59-2.942 2.329-4.71 4.33-5.77-3.731 1.655-4.996 4.08-4.996 4.08-5.657 3.993-4.992 12.902-4.992 12.902 1.33-2.918 3.16-1.23 3.16-1.23 1.832 4.302 3.494 4.149 3.494 4.149 2.16-2.919-.499-5.069-.499-5.069-1.33-3.073 2.827-2.458 2.827-2.458 11.145 4.146 15.138-9.677 15.138-9.677m-88.152-.63s1.57-1.075 2.4.615c0 0-.475 3.467-2.4 1.579 0 0-1.234-1.734 0-2.194"></path><path d="M32.07 77.27c-.166-2.15-2.328-3.071-2.328-3.071 3.194-.782 5.945-1.11 8.308-1.13-.5.024-1.49 2.665-1.49 2.665-.998 9.215 7.32 9.525 7.32 9.525 4.823.46 6.652-4.916 6.652-4.916-.59-2.942-2.328-4.71-4.329-5.77 3.731 1.655 4.996 4.08 4.996 4.08 5.657 3.993 4.992 12.902 4.992 12.902-1.331-2.918-3.16-1.23-3.16-1.23-1.832 4.302-3.494 4.149-3.494 4.149-2.16-2.919.498-5.069.498-5.069 1.332-3.073-2.826-2.458-2.826-2.458C36.062 91.093 32.07 77.27 32.07 77.27"></path></svg></svg>